<svg id="Illustration" xmlns="http://www.w3.org/2000/svg" xmlns:xlink="http://www.w3.org/1999/xlink" width="119.462" height="97.249" viewBox="0 0 119.462 97.249">
  <defs>
    <clipPath id="clip-path">
      <path id="Clip_6" data-name="Clip 6" d="M0,97.249H119.462V0H0Z" fill="none"/>
    </clipPath>
  </defs>
  <path id="Fill_1" data-name="Fill 1" d="M68.823,57.127H4.069A4.081,4.081,0,0,1,0,53.058V4.069A4.081,4.081,0,0,1,4.069,0H68.823a4.081,4.081,0,0,1,4.07,4.069V53.058a4.081,4.081,0,0,1-4.07,4.069" transform="translate(23.3 37.022)" fill="#fff"/>
  <path id="Stroke_3" data-name="Stroke 3" d="M68.823,57.127H4.069A4.081,4.081,0,0,1,0,53.058V4.069A4.081,4.081,0,0,1,4.069,0H68.823a4.081,4.081,0,0,1,4.07,4.069V53.058A4.081,4.081,0,0,1,68.823,57.127Z" transform="translate(23.3 37.022)" fill="none" stroke="#000" stroke-width="1"/>
  <path id="Clip_6-2" data-name="Clip 6" d="M0,97.249H119.462V0H0Z" fill="none"/>
  <g id="Illustration-2" data-name="Illustration" clip-path="url(#clip-path)">
    <path id="Fill_5" data-name="Fill 5" d="M0,8.523H72.893V0H0Z" transform="translate(23.3 42.983)" fill="#eef9ff"/>
    <path id="Stroke_7" data-name="Stroke 7" d="M0,8.523H72.893V0H0Z" transform="translate(23.3 42.983)" fill="none" stroke="#000" stroke-width="1"/>
    <path id="Stroke_8" data-name="Stroke 8" d="M.287,0V51.138" transform="translate(33.426 42.983)" fill="none" stroke="#000" stroke-width="1"/>
    <path id="Stroke_9" data-name="Stroke 9" d="M.287,0V51.138" transform="translate(43.839 42.983)" fill="none" stroke="#000" stroke-width="1"/>
    <path id="Stroke_10" data-name="Stroke 10" d="M.287,0V51.138" transform="translate(54.253 42.983)" fill="none" stroke="#000" stroke-width="1"/>
    <path id="Stroke_11" data-name="Stroke 11" d="M.287,0V51.138" transform="translate(64.666 42.983)" fill="none" stroke="#000" stroke-width="1"/>
    <path id="Stroke_12" data-name="Stroke 12" d="M.287,0V51.138" transform="translate(75.079 42.983)" fill="none" stroke="#000" stroke-width="1"/>
    <path id="Stroke_13" data-name="Stroke 13" d="M.287,0V51.138" transform="translate(85.492 42.983)" fill="none" stroke="#000" stroke-width="1"/>
    <path id="Fill_14" data-name="Fill 14" d="M6.053,51.167H0V0H10.414V46.806a4.36,4.36,0,0,1-4.36,4.36" transform="translate(85.78 42.983)" fill="#23c896"/>
    <path id="Stroke_15" data-name="Stroke 15" d="M6.053,51.167H0V0H10.414V46.806A4.36,4.36,0,0,1,6.053,51.167Z" transform="translate(85.78 42.983)" fill="none" stroke="#000" stroke-width="0.992"/>
    <path id="Stroke_16" data-name="Stroke 16" d="M0,.287H72.893" transform="translate(23.3 42.696)" fill="none" stroke="#000" stroke-width="1"/>
    <path id="Stroke_17" data-name="Stroke 17" d="M0,.287H72.893" transform="translate(23.3 51.219)" fill="none" stroke="#000" stroke-width="1"/>
    <path id="Stroke_18" data-name="Stroke 18" d="M0,.287H72.893" transform="translate(23.3 59.742)" fill="none" stroke="#000" stroke-width="1"/>
    <path id="Stroke_19" data-name="Stroke 19" d="M0,.287H72.893" transform="translate(23.3 68.265)" fill="none" stroke="#000" stroke-width="1"/>
    <path id="Stroke_20" data-name="Stroke 20" d="M0,.287H72.893" transform="translate(23.3 76.788)" fill="none" stroke="#000" stroke-width="1"/>
    <path id="Stroke_21" data-name="Stroke 21" d="M0,.287H72.893" transform="translate(23.3 85.311)" fill="none" stroke="#000" stroke-width="1"/>
    <path id="Fill_22" data-name="Fill 22" d="M1.4.7A.7.7,0,1,1,.7,0a.7.7,0,0,1,.7.7" transform="translate(25.482 39.199)" fill="#fff"/>
    <path id="Stroke_23" data-name="Stroke 23" d="M1.4.7A.7.7,0,1,1,.7,0,.7.7,0,0,1,1.4.7Z" transform="translate(25.482 39.199)" fill="none" stroke="#000" stroke-width="0.709"/>
    <path id="Fill_24" data-name="Fill 24" d="M1.4.7A.7.7,0,1,1,.7,0a.7.7,0,0,1,.7.7" transform="translate(27.815 39.199)" fill="#fff"/>
    <path id="Stroke_25" data-name="Stroke 25" d="M1.4.7A.7.7,0,1,1,.7,0,.7.7,0,0,1,1.4.7Z" transform="translate(27.815 39.199)" fill="none" stroke="#000" stroke-width="0.709"/>
    <path id="Fill_26" data-name="Fill 26" d="M1.4.7A.7.7,0,1,1,.7,0a.7.7,0,0,1,.7.7" transform="translate(30.148 39.199)" fill="#fff"/>
    <path id="Stroke_27" data-name="Stroke 27" d="M1.4.7A.7.7,0,1,1,.7,0,.7.7,0,0,1,1.4.7Z" transform="translate(30.148 39.199)" fill="none" stroke="#000" stroke-width="0.709"/>
    <path id="Fill_28" data-name="Fill 28" d="M6.044,3.022A3.022,3.022,0,1,1,3.022,0,3.022,3.022,0,0,1,6.044,3.022" transform="translate(56.725 52.649)" fill="#fff"/>
    <path id="Stroke_29" data-name="Stroke 29" d="M6.044,3.022A3.022,3.022,0,1,1,3.022,0,3.022,3.022,0,0,1,6.044,3.022Z" transform="translate(56.725 52.649)" fill="none" stroke="#000" stroke-linecap="round" stroke-linejoin="round" stroke-width="1"/>
    <path id="Fill_30" data-name="Fill 30" d="M1.638,2.479a.255.255,0,0,1-.154-.052L.1,1.4A.258.258,0,1,1,.413.983l1.2.893,1.7-1.8a.258.258,0,1,1,.374.355L1.826,2.4a.258.258,0,0,1-.188.081" transform="translate(57.926 54.482)" fill="#23c896"/>
    <path id="Fill_31" data-name="Fill 31" d="M6.044,3.022A3.022,3.022,0,1,1,3.022,0,3.022,3.022,0,0,1,6.044,3.022" transform="translate(35.615 69.953)" fill="#fff"/>
    <path id="Stroke_32" data-name="Stroke 32" d="M6.044,3.022A3.022,3.022,0,1,1,3.022,0,3.022,3.022,0,0,1,6.044,3.022Z" transform="translate(35.615 69.953)" fill="none" stroke="#000" stroke-linecap="round" stroke-linejoin="round" stroke-width="1"/>
    <path id="Fill_33" data-name="Fill 33" d="M1.639,2.479a.255.255,0,0,1-.155-.052L.1,1.4A.258.258,0,1,1,.413.983l1.2.893,1.7-1.8a.258.258,0,1,1,.375.355L1.826,2.4a.258.258,0,0,1-.187.081" transform="translate(36.816 71.786)" fill="#23c896"/>
    <path id="Fill_34" data-name="Fill 34" d="M6.044,3.022A3.022,3.022,0,1,1,3.022,0,3.022,3.022,0,0,1,6.044,3.022" transform="translate(56.418 78.265)" fill="#fff"/>
    <path id="Stroke_35" data-name="Stroke 35" d="M6.044,3.022A3.022,3.022,0,1,1,3.022,0,3.022,3.022,0,0,1,6.044,3.022Z" transform="translate(56.418 78.265)" fill="none" stroke="#000" stroke-linecap="round" stroke-linejoin="round" stroke-width="1"/>
    <path id="Fill_36" data-name="Fill 36" d="M2.2,1.8l-.61-.61.7-.7A.287.287,0,0,0,1.882.084l-.7.7L.576.169A.287.287,0,0,0,.17.575l.61.611-.7.7a.287.287,0,0,0,.406.407l.7-.7L1.8,2.2A.287.287,0,1,0,2.2,1.8" transform="translate(58.227 79.994)" fill="#ff2b02"/>
    <path id="Fill_37" data-name="Fill 37" d="M13.822,28.154A.831.831,0,0,1,13,27.421l-.207-1.728-.055-.006-.117-.013c-.105-.013-.217-.029-.365-.052l-.089-.014-.115-.019c-.118-.021-.237-.045-.337-.066l-.23-.049c-.111-.025-.219-.052-.3-.074l-.069-.018c-.065-.016-.129-.033-.193-.051-.082-.022-.163-.048-.241-.072l-.021-.006-.074-.023c-.074-.023-.147-.046-.221-.07s-.148-.052-.222-.079c-.106-.038-.216-.077-.323-.119-.064-.025-.128-.052-.192-.079-.125-.051-.235-.1-.337-.143l-.1-.049-.052-.025L8.059,26.035a.832.832,0,0,1-1.168.14L4.018,23.917a.833.833,0,0,1-.139-1.168l1.075-1.368-.036-.045c-.024-.03-.048-.06-.072-.09-.079-.1-.155-.205-.22-.294L4.585,20.9c-.027-.037-.054-.074-.081-.112-.057-.081-.113-.165-.167-.246L4.313,20.5l-.041-.062c-.03-.046-.06-.091-.088-.137-.056-.087-.109-.177-.16-.264l-.039-.065c-.034-.057-.067-.113-.1-.17-.044-.079-.086-.158-.128-.237s-.1-.184-.143-.277c-.033-.067-.066-.136-.1-.212-.044-.092-.1-.2-.144-.312-.015-.035-.03-.071-.045-.106l-.035-.085c-.046-.112-.094-.227-.137-.341-.013-.034-.026-.069-.038-.1l-.021-.059-1.728.207a.846.846,0,0,1-.1.006.83.83,0,0,1-.824-.733L.006,13.923A.832.832,0,0,1,.734,13l1.728-.207c0-.019,0-.037.006-.055,0-.039.008-.077.013-.116.015-.126.035-.253.052-.365l.012-.074c.007-.043.013-.087.021-.13.017-.1.037-.2.066-.337l.017-.081c.01-.05.021-.1.032-.149.023-.1.049-.2.074-.3s.045-.175.069-.262.052-.177.078-.261c.032-.107.062-.2.093-.3.025-.076.052-.151.078-.221.045-.126.083-.228.12-.323.016-.04.032-.08.049-.12l.029-.071.021-.05c.039-.1.08-.194.123-.29.023-.052.049-.1.074-.155L2.119,8.059a.834.834,0,0,1-.14-1.168L4.236,4.018A.832.832,0,0,1,5.4,3.878L6.773,4.954l.135-.108c.085-.066.179-.136.3-.22.056-.041.11-.081.166-.121.082-.057.173-.118.285-.193l.033-.021c.055-.036.109-.072.165-.106.078-.05.159-.1.237-.144l.028-.016c.074-.044.154-.092.235-.137s.138-.076.207-.113l.031-.017c.092-.049.183-.1.275-.143.07-.035.141-.068.212-.1.1-.048.207-.1.312-.143.049-.022.1-.042.148-.062l.043-.018c.112-.046.227-.094.341-.137.054-.021.108-.04.162-.059L9.878,1.365A.831.831,0,0,1,10.6.441L14.232.006a.831.831,0,0,1,.925.727l.206,1.728.055.006.117.013c.119.014.239.033.354.051l.01,0,.057.009.148.024c.113.019.227.043.337.066.075.015.153.031.229.049.105.023.207.049.3.074s.184.047.262.068L17.5,2.9c.114.034.207.064.293.093.065.022.128.045.193.068l.03.011c.088.031.2.072.321.119l.192.078c.118.048.229.1.338.144.044.02.087.04.13.061l.025.012L20.1,2.119a.834.834,0,0,1,1.169-.14l2.872,2.257a.832.832,0,0,1,.14,1.168L23.2,6.773l.028.034c.027.034.054.067.08.1.066.083.128.168.189.25l.032.043c.021.031.044.061.066.091l.056.076c.054.078.107.158.157.235l.033.051c.042.063.087.13.13.2s.084.137.126.206l.035.058.038.065c.033.057.067.113.1.17s.062.114.093.171l.037.069.039.074c.035.067.071.134.1.2l.1.212c.048.1.1.207.143.312.028.063.054.127.08.191.039.094.09.218.138.341.021.054.04.108.059.163l1.729-.208a.841.841,0,0,1,.1-.006.833.833,0,0,1,.826.733l.435,3.628a.831.831,0,0,1-.728.924l-1.727.208-.006.059c0,.037-.008.075-.013.112-.014.113-.032.232-.053.364q-.015.1-.032.205c-.017.1-.038.2-.058.3l-.007.035c-.016.078-.032.155-.049.231-.023.1-.049.206-.074.3l-.011.042c-.019.073-.038.148-.059.221s-.05.173-.077.261c-.034.115-.064.208-.094.3-.018.055-.038.111-.058.166l-.02.055c-.045.126-.083.228-.12.323-.025.063-.052.127-.079.191-.04.1-.089.218-.144.338-.019.041-.038.083-.058.124l-.015.032L26.036,20.1a.831.831,0,0,1,.139,1.167l-2.258,2.873a.832.832,0,0,1-1.168.14L21.381,23.2l-.008.007c-.042.034-.084.069-.127.1-.1.077-.2.152-.294.22l-.056.041-.112.081c-.1.069-.2.135-.285.192l-.056.037-.14.092c-.085.053-.172.106-.265.16l-.063.037-.171.1c-.068.038-.136.074-.2.11l-.036.019-.094.049c-.063.033-.122.064-.18.094l-.128.061-.085.04c-.1.048-.207.1-.312.143l-.123.052-.067.028c-.112.046-.227.094-.342.137-.047.018-.1.035-.143.052l-.019.007.207,1.728a.834.834,0,0,1-.727.925l-3.628.435A.84.84,0,0,1,13.822,28.154Zm.255-21.065a6.988,6.988,0,1,0,6.989,6.989A7,7,0,0,0,14.077,7.089Z" transform="translate(69.94 0.285)" fill="#f1faff"/>
    <path id="Stroke_38" data-name="Stroke 38" d="M13.822,28.154A.831.831,0,0,1,13,27.421l-.207-1.728-.055-.006-.117-.013c-.105-.013-.217-.029-.365-.052l-.089-.014-.115-.019c-.118-.021-.237-.045-.337-.066l-.23-.049c-.111-.025-.219-.052-.3-.074l-.069-.018c-.065-.016-.129-.033-.193-.051-.082-.022-.163-.048-.241-.072l-.021-.006-.074-.023c-.074-.023-.147-.046-.221-.07s-.148-.052-.222-.079c-.106-.038-.216-.077-.323-.119-.064-.025-.128-.052-.192-.079-.125-.051-.235-.1-.337-.143l-.1-.049-.052-.025L8.059,26.035a.832.832,0,0,1-1.168.14L4.018,23.917a.833.833,0,0,1-.139-1.168l1.075-1.368-.036-.045c-.024-.03-.048-.06-.072-.09-.079-.1-.155-.205-.22-.294L4.585,20.9c-.027-.037-.054-.074-.081-.112-.057-.081-.113-.165-.167-.246L4.313,20.5l-.041-.062c-.03-.046-.06-.091-.088-.137-.056-.087-.109-.177-.16-.264l-.039-.065c-.034-.057-.067-.113-.1-.17-.044-.079-.086-.158-.128-.237s-.1-.184-.143-.277c-.033-.067-.066-.136-.1-.212-.044-.092-.1-.2-.144-.312-.015-.035-.03-.071-.045-.106l-.035-.085c-.046-.112-.094-.227-.137-.341-.013-.034-.026-.069-.038-.1l-.021-.059-1.728.207a.846.846,0,0,1-.1.006.83.83,0,0,1-.824-.733L.006,13.923A.832.832,0,0,1,.734,13l1.728-.207c0-.019,0-.037.006-.055,0-.039.008-.077.013-.116.015-.126.035-.253.052-.365l.012-.074c.007-.043.013-.087.021-.13.017-.1.037-.2.066-.337l.017-.081c.01-.05.021-.1.032-.149.023-.1.049-.2.074-.3s.045-.175.069-.262.052-.177.078-.261c.032-.107.062-.2.093-.3.025-.076.052-.151.078-.221.045-.126.083-.228.12-.323.016-.04.032-.08.049-.12l.029-.071.021-.05c.039-.1.08-.194.123-.29.023-.052.049-.1.074-.155L2.119,8.059a.834.834,0,0,1-.14-1.168L4.236,4.018A.832.832,0,0,1,5.4,3.878L6.773,4.954l.135-.108c.085-.066.179-.136.3-.22.056-.041.11-.081.166-.121.082-.057.173-.118.285-.193l.033-.021c.055-.036.109-.072.165-.106.078-.05.159-.1.237-.144l.028-.016c.074-.044.154-.092.235-.137s.138-.076.207-.113l.031-.017c.092-.049.183-.1.275-.143.07-.035.141-.068.212-.1.1-.048.207-.1.312-.143.049-.022.1-.042.148-.062l.043-.018c.112-.046.227-.094.341-.137.054-.021.108-.04.162-.059L9.878,1.365A.831.831,0,0,1,10.6.441L14.232.006a.831.831,0,0,1,.925.727l.206,1.728.055.006.117.013c.119.014.239.033.354.051l.01,0,.057.009.148.024c.113.019.227.043.337.066.075.015.153.031.229.049.105.023.207.049.3.074s.184.047.262.068L17.5,2.9c.114.034.207.064.293.093.065.022.128.045.193.068l.03.011c.088.031.2.072.321.119l.192.078c.118.048.229.1.338.144.044.02.087.04.13.061l.025.012L20.1,2.119a.834.834,0,0,1,1.169-.14l2.872,2.257a.832.832,0,0,1,.14,1.168L23.2,6.773l.028.034c.027.034.054.067.08.1.066.083.128.168.189.25l.032.043c.021.031.044.061.066.091l.056.076c.054.078.107.158.157.235l.033.051c.042.063.087.13.13.2s.084.137.126.206l.035.058.038.065c.033.057.067.113.1.17s.062.114.093.171l.037.069.039.074c.035.067.071.134.1.2l.1.212c.048.1.1.207.143.312.028.063.054.127.08.191.039.094.09.218.138.341.021.054.04.108.059.163l1.729-.208a.841.841,0,0,1,.1-.006.833.833,0,0,1,.826.733l.435,3.628a.831.831,0,0,1-.728.924l-1.727.208-.006.059c0,.037-.008.075-.013.112-.014.113-.032.232-.053.364q-.015.1-.032.205c-.017.1-.038.2-.058.3l-.007.035c-.016.078-.032.155-.049.231-.023.1-.049.206-.074.3l-.011.042c-.019.073-.038.148-.059.221s-.05.173-.077.261c-.034.115-.064.208-.094.3-.018.055-.038.111-.058.166l-.02.055c-.045.126-.083.228-.12.323-.025.063-.052.127-.079.191-.04.1-.089.218-.144.338-.019.041-.038.083-.058.124l-.015.032L26.036,20.1a.831.831,0,0,1,.139,1.167l-2.258,2.873a.832.832,0,0,1-1.168.14L21.381,23.2l-.008.007c-.042.034-.084.069-.127.1-.1.077-.2.152-.294.22l-.056.041-.112.081c-.1.069-.2.135-.285.192l-.056.037-.14.092c-.085.053-.172.106-.265.16l-.063.037-.171.1c-.068.038-.136.074-.2.11l-.036.019-.094.049c-.063.033-.122.064-.18.094l-.128.061-.085.04c-.1.048-.207.1-.312.143l-.123.052-.067.028c-.112.046-.227.094-.342.137-.047.018-.1.035-.143.052l-.019.007.207,1.728a.834.834,0,0,1-.727.925l-3.628.435A.84.84,0,0,1,13.822,28.154Zm.255-21.065a6.988,6.988,0,1,0,6.989,6.989A7,7,0,0,0,14.077,7.089Z" transform="translate(69.94 0.285)" fill="none" stroke="#000" stroke-width="0.992"/>
    <path id="Fill_39" data-name="Fill 39" d="M9.34,19.02a.564.564,0,0,1-.559-.5l-.139-1.167-.061-.007-.055-.006c-.082-.011-.164-.023-.246-.036L8.233,17.3l-.092-.015-.228-.045c-.052-.01-.1-.021-.156-.032l-.2-.05-.177-.046L7.2,17.06,7,17l-.088-.03-.062-.022-.061-.022-.157-.059-.129-.053c-.075-.031-.153-.063-.229-.1l-.052-.024-.054-.025-.726.924a.563.563,0,0,1-.79.094l-1.94-1.526a.561.561,0,0,1-.094-.789l.726-.924L3.31,14.4l-.037-.045c-.051-.067-.1-.134-.148-.2l-.083-.113c-.037-.052-.072-.106-.107-.159l-.021-.032c-.03-.044-.059-.089-.088-.134s-.072-.118-.107-.178-.063-.105-.094-.159c-.021-.038-.042-.077-.062-.115l-.024-.046-.024-.045c-.025-.046-.049-.093-.073-.14s-.046-.1-.068-.143l-.028-.061c-.023-.05-.047-.1-.069-.151-.012-.026-.023-.053-.033-.08l-.02-.049c-.027-.063-.061-.146-.093-.23-.01-.026-.019-.051-.029-.077l-.012-.033-1.167.139a.57.57,0,0,1-.068,0,.562.562,0,0,1-.557-.5L0,9.406A.565.565,0,0,1,.5,8.78l1.166-.139c0-.019,0-.039.006-.058s0-.039.006-.058c.009-.065.019-.131.029-.2l.008-.05.006-.042c0-.034.009-.065.015-.1.012-.07.026-.139.04-.208l0-.02.016-.077.016-.077c.016-.068.033-.136.05-.2s.031-.119.047-.177.031-.109.053-.176S2,7.068,2.022,7c.017-.049.035-.1.053-.149.026-.073.052-.146.08-.218l0-.005.051-.124c.037-.09.068-.162.1-.229.008-.019.017-.038.026-.057l.022-.049-.923-.726a.563.563,0,0,1-.094-.789l1.525-1.94a.56.56,0,0,1,.788-.094l.924.726.045-.036.045-.036c.05-.038.1-.075.15-.112l.05-.037.045-.032.068-.049.137-.093.055-.037.078-.051L5.3,2.826l.119-.072.059-.036.08-.046.08-.046c.053-.03.107-.059.161-.086s.124-.067.185-.1L6.1,2.39l.035-.016.023-.011c.062-.029.125-.059.188-.086L6.43,2.24l.043-.018c.069-.029.144-.059.229-.093.037-.014.073-.027.111-.04L6.673.923A.562.562,0,0,1,7.164.3L9.615,0a.57.57,0,0,1,.069,0A.563.563,0,0,1,10.24.5l.139,1.167.058.006.058.006c.082.011.165.023.247.036l.138.022c.068.012.141.026.228.045l.049.01.107.022c.064.014.132.031.2.05l.053.014.124.032.176.053.058.018.141.044.075.027.075.027c.073.026.145.052.218.08l.054.023.074.031c.076.032.153.064.229.1l.05.024.055.026.726-.923a.563.563,0,0,1,.79-.1l1.939,1.526a.562.562,0,0,1,.1.789l-.727.924.006.007c.022.027.045.055.067.083.051.066.1.133.149.2l.019.026c.021.029.043.058.064.087.047.067.091.134.129.192l.018.027c.024.037.047.072.07.107.037.059.073.119.108.178l.015.025c.027.045.053.089.078.134s.038.067.056.1l.032.06.034.065c.021.04.042.08.062.121s.037.077.055.115l.013.028.017.037c.027.057.054.115.08.174l.03.071.024.057c.029.068.062.148.093.231.013.031.024.063.035.095l0,.014,1.167-.14a.569.569,0,0,1,.067,0,.563.563,0,0,1,.558.5l.293,2.451a.562.562,0,0,1-.491.626l-1.167.139c0,.019,0,.039-.006.058s0,.039-.006.058c-.01.074-.022.147-.033.22l0,.026-.007.048c0,.03-.009.06-.014.09-.014.076-.029.151-.044.227-.011.052-.022.1-.033.157s-.032.134-.049.2-.031.12-.047.178-.031.109-.053.176-.04.133-.062.2c-.009.025-.018.05-.027.075l-.027.075c-.026.073-.053.146-.08.218l-.054.129c-.031.077-.064.153-.1.229l-.022.048c-.009.019-.018.038-.026.057l.923.726a.563.563,0,0,1,.095.789l-1.526,1.94a.561.561,0,0,1-.788.095l-.924-.726-.045.036-.045.036c-.044.034-.089.067-.133.1l-.067.049-.056.041-.057.042c-.064.044-.128.086-.193.129l-.013.009c-.041.027-.08.053-.121.078s-.077.048-.115.071l-.062.038-.057.033-.1.059c-.047.027-.094.052-.144.078l-.017.009-.184.1-.145.068c-.078.038-.144.068-.21.1l-.086.036-.043.018c-.089.037-.162.067-.23.093l-.063.023-.047.017.14,1.167a.564.564,0,0,1-.491.625l-2.451.293A.575.575,0,0,1,9.34,19.02ZM9.51,4.789A4.721,4.721,0,1,0,14.231,9.51,4.726,4.726,0,0,0,9.51,4.789Z" transform="translate(100.157 14.448)" fill="#f1faff"/>
    <path id="Stroke_40" data-name="Stroke 40" d="M9.34,19.02a.564.564,0,0,1-.559-.5l-.139-1.167-.061-.007-.055-.006c-.082-.011-.164-.023-.246-.036L8.233,17.3l-.092-.015-.228-.045c-.052-.01-.1-.021-.156-.032l-.2-.05-.177-.046L7.2,17.06,7,17l-.088-.03-.062-.022-.061-.022-.157-.059-.129-.053c-.075-.031-.153-.063-.229-.1l-.052-.024-.054-.025-.726.924a.563.563,0,0,1-.79.094l-1.94-1.526a.561.561,0,0,1-.094-.789l.726-.924L3.31,14.4l-.037-.045c-.051-.067-.1-.134-.148-.2l-.083-.113c-.037-.052-.072-.106-.107-.159l-.021-.032c-.03-.044-.059-.089-.088-.134s-.072-.118-.107-.178-.063-.105-.094-.159c-.021-.038-.042-.077-.062-.115l-.024-.046-.024-.045c-.025-.046-.049-.093-.073-.14s-.046-.1-.068-.143l-.028-.061c-.023-.05-.047-.1-.069-.151-.012-.026-.023-.053-.033-.08l-.02-.049c-.027-.063-.061-.146-.093-.23-.01-.026-.019-.051-.029-.077l-.012-.033-1.167.139a.57.57,0,0,1-.068,0,.562.562,0,0,1-.557-.5L0,9.406A.565.565,0,0,1,.5,8.78l1.166-.139c0-.019,0-.039.006-.058s0-.039.006-.058c.009-.065.019-.131.029-.2l.008-.05.006-.042c0-.034.009-.065.015-.1.012-.07.026-.139.04-.208l0-.02.016-.077.016-.077c.016-.068.033-.136.05-.2s.031-.119.047-.177.031-.109.053-.176S2,7.068,2.022,7c.017-.049.035-.1.053-.149.026-.073.052-.146.08-.218l0-.005.051-.124c.037-.09.068-.162.1-.229.008-.019.017-.038.026-.057l.022-.049-.923-.726a.563.563,0,0,1-.094-.789l1.525-1.94a.56.56,0,0,1,.788-.094l.924.726.045-.036.045-.036c.05-.038.1-.075.15-.112l.05-.037.045-.032.068-.049.137-.093.055-.037.078-.051L5.3,2.826l.119-.072.059-.036.08-.046.08-.046c.053-.03.107-.059.161-.086s.124-.067.185-.1L6.1,2.39l.035-.016.023-.011c.062-.029.125-.059.188-.086L6.43,2.24l.043-.018c.069-.029.144-.059.229-.093.037-.014.073-.027.111-.04L6.673.923A.562.562,0,0,1,7.164.3L9.615,0a.57.57,0,0,1,.069,0A.563.563,0,0,1,10.24.5l.139,1.167.058.006.058.006c.082.011.165.023.247.036l.138.022c.068.012.141.026.228.045l.049.01.107.022c.064.014.132.031.2.05l.053.014.124.032.176.053.058.018.141.044.075.027.075.027c.073.026.145.052.218.08l.054.023.074.031c.076.032.153.064.229.1l.05.024.055.026.726-.923a.563.563,0,0,1,.79-.1l1.939,1.526a.562.562,0,0,1,.1.789l-.727.924.006.007c.022.027.045.055.067.083.051.066.1.133.149.2l.019.026c.021.029.043.058.064.087.047.067.091.134.129.192l.018.027c.024.037.047.072.07.107.037.059.073.119.108.178l.015.025c.027.045.053.089.078.134s.038.067.056.1l.032.06.034.065c.021.04.042.08.062.121s.037.077.055.115l.013.028.017.037c.027.057.054.115.08.174l.03.071.024.057c.029.068.062.148.093.231.013.031.024.063.035.095l0,.014,1.167-.14a.569.569,0,0,1,.067,0,.563.563,0,0,1,.558.5l.293,2.451a.562.562,0,0,1-.491.626l-1.167.139c0,.019,0,.039-.006.058s0,.039-.006.058c-.01.074-.022.147-.033.22l0,.026-.007.048c0,.03-.009.06-.014.09-.014.076-.029.151-.044.227-.011.052-.022.1-.033.157s-.032.134-.049.2-.031.12-.047.178-.031.109-.053.176-.04.133-.062.2c-.009.025-.018.05-.027.075l-.027.075c-.026.073-.053.146-.08.218l-.054.129c-.031.077-.064.153-.1.229l-.022.048c-.009.019-.018.038-.026.057l.923.726a.563.563,0,0,1,.095.789l-1.526,1.94a.561.561,0,0,1-.788.095l-.924-.726-.045.036-.045.036c-.044.034-.089.067-.133.1l-.067.049-.056.041-.057.042c-.064.044-.128.086-.193.129l-.013.009c-.041.027-.08.053-.121.078s-.077.048-.115.071l-.062.038-.057.033-.1.059c-.047.027-.094.052-.144.078l-.017.009-.184.1-.145.068c-.078.038-.144.068-.21.1l-.086.036-.043.018c-.089.037-.162.067-.23.093l-.063.023-.047.017.14,1.167a.564.564,0,0,1-.491.625l-2.451.293A.575.575,0,0,1,9.34,19.02ZM9.51,4.789A4.721,4.721,0,1,0,14.231,9.51,4.726,4.726,0,0,0,9.51,4.789Z" transform="translate(100.157 14.448)" fill="none" stroke="#000" stroke-width="0.992"/>
    <path id="Fill_41" data-name="Fill 41" d="M13.53,3.005H1.5A1.5,1.5,0,1,1,1.5,0H13.53a1.5,1.5,0,0,1,0,3.005" transform="translate(8.767 93.957)" fill="#ffb501"/>
    <path id="Stroke_42" data-name="Stroke 42" d="M13.53,3.005H1.5A1.5,1.5,0,1,1,1.5,0H13.53a1.5,1.5,0,0,1,0,3.005Z" transform="translate(8.767 93.957)" fill="none" stroke="#000" stroke-width="1"/>
    <path id="Fill_43" data-name="Fill 43" d="M13.53,3.005H1.5A1.5,1.5,0,1,1,1.5,0H13.53a1.5,1.5,0,0,1,0,3.005" transform="translate(12.924 90.773)" fill="#ffb501"/>
    <path id="Stroke_44" data-name="Stroke 44" d="M13.53,3.005H1.5A1.5,1.5,0,1,1,1.5,0H13.53a1.5,1.5,0,0,1,0,3.005Z" transform="translate(12.924 90.773)" fill="none" stroke="#000" stroke-width="1"/>
    <path id="Fill_45" data-name="Fill 45" d="M13.53,3.005H1.5A1.5,1.5,0,1,1,1.5,0H13.53a1.5,1.5,0,0,1,0,3.005" transform="translate(18.98 93.957)" fill="#ffb501"/>
    <path id="Stroke_46" data-name="Stroke 46" d="M13.53,3.005H1.5A1.5,1.5,0,1,1,1.5,0H13.53a1.5,1.5,0,0,1,0,3.005Z" transform="translate(18.98 93.957)" fill="none" stroke="#000" stroke-width="1"/>
    <path id="Fill_47" data-name="Fill 47" d="M12.246,11.366c-2.62,3.86-7.075,5.406-9.949,3.455S-.782,8.159,1.839,4.3,8.914-1.107,11.788.844s3.079,6.662.458,10.522" transform="translate(24.165 71.685)" fill="#fff"/>
    <path id="Stroke_48" data-name="Stroke 48" d="M12.246,11.366c-2.62,3.86-7.075,5.406-9.949,3.455S-.782,8.159,1.839,4.3,8.914-1.107,11.788.844,14.866,7.506,12.246,11.366Z" transform="translate(24.165 71.685)" fill="none" stroke="#000" stroke-width="1"/>
    <path id="Fill_49" data-name="Fill 49" d="M12.246,11.366c-2.62,3.86-7.075,5.406-9.949,3.455S-.782,8.159,1.839,4.3,8.914-1.108,11.788.845s3.079,6.661.458,10.522" transform="translate(22.838 70.784)" fill="#ffb501"/>
    <path id="Stroke_50" data-name="Stroke 50" d="M12.246,11.366c-2.62,3.86-7.075,5.406-9.949,3.455S-.782,8.159,1.839,4.3,8.914-1.108,11.788.845,14.867,7.506,12.246,11.366Z" transform="translate(22.838 70.784)" fill="none" stroke="#000" stroke-width="1"/>
    <path id="Fill_51" data-name="Fill 51" d="M10.644,3.119C7.1.083,2.97-.907,1.414.908L0,2.558l.873.749c.274,1.93,1.771,4.356,4.139,6.385s4.994,3.138,6.943,3.113l.873.749,1.414-1.65c1.555-1.814-.056-5.747-3.6-8.783" transform="translate(0.88 55.21)" fill="#fff"/>
    <path id="Stroke_52" data-name="Stroke 52" d="M10.644,3.119C7.1.083,2.97-.907,1.414.908L0,2.558l.873.749c.274,1.93,1.771,4.356,4.139,6.385s4.994,3.138,6.943,3.113l.873.749,1.414-1.65C15.8,10.088,14.187,6.156,10.644,3.119Z" transform="translate(0.88 55.21)" fill="none" stroke="#000" stroke-width="1"/>
    <path id="Fill_53" data-name="Fill 53" d="M9.823,3.119c3.543,3.036,5.154,6.968,3.6,8.783s-5.688.825-9.231-2.211S-.963,2.723.593.908,6.281.083,9.823,3.119" transform="translate(0.287 56.86)" fill="#ffb501"/>
    <path id="Stroke_54" data-name="Stroke 54" d="M9.823,3.119c3.543,3.036,5.154,6.968,3.6,8.783s-5.688.825-9.231-2.211S-.963,2.723.593.908,6.281.083,9.823,3.119Z" transform="translate(0.287 56.86)" fill="none" stroke="#000" stroke-width="1"/>
  </g>
</svg>
