<svg xmlns="http://www.w3.org/2000/svg" width="349.661" height="20" viewBox="0 0 349.661 20">
  <g id="Bars_Status_Bar_iPhone_Light" data-name="Bars / Status Bar / iPhone / Light" transform="translate(-11 -12.936)">
    <g id="Battery">
      <g id="Border" transform="translate(336.33 17.33)" fill="none" stroke="#555" stroke-width="1" opacity="0.349">
        <rect width="22" height="11.33" rx="2.67" stroke="none"/>
        <rect x="0.5" y="0.5" width="21" height="10.33" rx="2.17" fill="none"/>
      </g>
      <path id="Cap" d="M359.333,21v4a2.17,2.17,0,0,0,0-4Z" fill="#555" opacity="0.4"/>
      <rect id="Capacity" width="18" height="7.33" rx="1.33" transform="translate(338.33 19.33)" fill="#555"/>
    </g>
    <path id="Wifi" d="M323.667,28.33a.314.314,0,0,1-.222-.093l-2.006-2.021a.317.317,0,0,1-.094-.231.312.312,0,0,1,.1-.228,3.439,3.439,0,0,1,4.437,0,.312.312,0,0,1,.1.228.317.317,0,0,1-.095.231l-2.005,2.021A.314.314,0,0,1,323.667,28.33Zm3.522-3.548a.309.309,0,0,1-.214-.086,4.928,4.928,0,0,0-6.612,0,.312.312,0,0,1-.436-.005l-1.158-1.17a.324.324,0,0,1-.095-.231.32.32,0,0,1,.1-.229,7.193,7.193,0,0,1,9.791,0,.327.327,0,0,1,.1.229.323.323,0,0,1-.094.231l-1.159,1.17A.31.31,0,0,1,327.189,24.782Zm-9.715-2.693a.308.308,0,0,1-.219-.091l-1.161-1.171a.323.323,0,0,1,0-.457,10.949,10.949,0,0,1,15.141,0,.323.323,0,0,1,0,.457L330.079,22a.309.309,0,0,1-.435,0,8.683,8.683,0,0,0-11.955,0A.305.305,0,0,1,317.474,22.089Z" fill="#555"/>
    <path id="Cellular_Connection" data-name="Cellular Connection" d="M310,28.333h-1a1,1,0,0,1-1-1V18.667a1,1,0,0,1,1-1h1a1,1,0,0,1,1,1v8.666A1,1,0,0,1,310,28.333Zm-14,0h-1a1,1,0,0,1-1-1v-2a1,1,0,0,1,1-1h1a1,1,0,0,1,1,1v2A1,1,0,0,1,296,28.333Zm9.33,0h-1a1,1,0,0,1-1-1V21a1,1,0,0,1,1-1h1a1,1,0,0,1,1,1V27.33A1,1,0,0,1,305.33,28.33Zm-4.66,0h-1a1,1,0,0,1-1-1v-4a1,1,0,0,1,1-1h1a1,1,0,0,1,1,1v4A1,1,0,0,1,300.67,28.33Z" fill="#555"/>
    <g id="Time_Style" data-name="Time Style" transform="translate(-10 -2)">
      <text id="_9:41" data-name="9:41" transform="translate(21 14.936)" fill="#555" font-size="15" font-family="Montserrat-Regular, Montserrat"><tspan x="1" y="15">9:41</tspan></text>
    </g>
  </g>
</svg>
